<svg width="84" height="84" viewBox="0 0 84 84" fill="none" xmlns="http://www.w3.org/2000/svg">
<path d="M4.5 42C4.5 46.9246 5.46997 51.8009 7.35452 56.3506C9.23907 60.9003 12.0013 65.0343 15.4835 68.5165C18.9657 71.9987 23.0997 74.7609 27.6494 76.6455C32.1991 78.53 37.0754 79.5 42 79.5C46.9246 79.5 51.8009 78.53 56.3506 76.6455C60.9003 74.7609 65.0343 71.9987 68.5165 68.5165C71.9987 65.0343 74.7609 60.9003 76.6455 56.3506C78.53 51.8009 79.5 46.9246 79.5 42C79.5 32.0544 75.5491 22.5161 68.5165 15.4835C61.4839 8.45088 51.9456 4.5 42 4.5C32.0544 4.5 22.5161 8.45088 15.4835 15.4835C8.45088 22.5161 4.5 32.0544 4.5 42Z" stroke="#4ECB71" stroke-width="8.33333" stroke-linecap="round" stroke-linejoin="round"/>
<path d="M42 21.1667V42L54.5 54.5" stroke="#4ECB71" stroke-width="8.33333" stroke-linecap="round" stroke-linejoin="round"/>
</svg>
