<svg width="59" height="84" viewBox="0 0 59 84" fill="none" xmlns="http://www.w3.org/2000/svg">
<path d="M29.1667 0C13.0417 0 0 13.0417 0 29.1667C0 51.0417 29.1667 83.3333 29.1667 83.3333C29.1667 83.3333 58.3333 51.0417 58.3333 29.1667C58.3333 13.0417 45.2917 0 29.1667 0ZM29.1667 39.5833C26.404 39.5833 23.7545 38.4859 21.801 36.5324C19.8475 34.5789 18.75 31.9293 18.75 29.1667C18.75 26.404 19.8475 23.7545 21.801 21.801C23.7545 19.8475 26.404 18.75 29.1667 18.75C31.9293 18.75 34.5789 19.8475 36.5324 21.801C38.4859 23.7545 39.5833 26.404 39.5833 29.1667C39.5833 31.9293 38.4859 34.5789 36.5324 36.5324C34.5789 38.4859 31.9293 39.5833 29.1667 39.5833Z" fill="#4ECB71"/>
</svg>
